# xmcd CD database file
#
# Track frame offsets:
#	150
#	11408
#	30555
#	47906
#	67023
#	89773
#	117681
#	145745
#	188478
#
# Disc length: 2865 seconds
#
# Revision: 0
# Processed by: cddbd v1.5.1PL2 Copyright (c) Steve Scherf et al.
# Submitted via: CDex 1.51
#
DISCID=7c0b2f09
DTITLE=Eric Glick Rieman, Leslie Dalaba, and Stuart Dempster - Lung Tree
DYEAR=2005
DGENRE=Jazz
TTITLE0=Opening Credits/Resolve
TTITLE1=The Dock-Red Ice
TTITLE2=Walking Ruminations
TTITLE3=Timbral Shift 10. Coward's Line/Lobby Bar
TTITLE4=Bed Shadows Into Sleep
TTITLE5=Waking By The Refinery
TTITLE6=Dissolution And Redemption Animals (Dream 3)
TTITLE7=Morning Light Through Smokestacks
TTITLE8=Talking Into The Wind
EXTD=YEAR: 2005
EXTT0=
EXTT1=
EXTT2=
EXTT3=
EXTT4=
EXTT5=
EXTT6=
EXTT7=
EXTT8=
PLAYORDER=
